<svg width="33" height="32" viewBox="0 0 33 32" fill="none" xmlns="http://www.w3.org/2000/svg">
<g id="american-express 1" clip-path="url(#clip0_3080_57682)">
<g id="Group 14384">
<rect id="Rectangle 492" x="0.5" y="6" width="32" height="20" rx="2" fill="#306FC5"/>
<g id="Group">
<path id="Vector" d="M8.22656 14.7145H8.92453L8.57564 13.8262L8.22656 14.7145Z" fill="white"/>
<path id="Vector_2" d="M11.9385 17.6982V18.1107H13.1124V18.555H11.9385V19.031H13.2392L13.8419 18.3646L13.2709 17.6982H11.9385Z" fill="white"/>
<path id="Vector_3" d="M21.1063 13.8262L20.7256 14.7145H21.4554L21.1063 13.8262Z" fill="white"/>
<path id="Vector_4" d="M15.3332 19.2839V17.4756L14.5083 18.3639L15.3332 19.2839Z" fill="white"/>
<path id="Vector_5" d="M16.8874 17.9839C16.8556 17.7936 16.7286 17.6982 16.5381 17.6982H15.8721V18.2693H16.5701C16.7604 18.2693 16.8874 18.1742 16.8874 17.9839Z" fill="white"/>
<path id="Vector_6" d="M19.108 18.2044C19.1715 18.1726 19.2033 18.0774 19.2033 17.9824C19.2351 17.8556 19.1715 17.792 19.108 17.7603C19.0447 17.7285 18.9494 17.7285 18.8544 17.7285H18.2197V18.2362H18.8543C18.9494 18.2362 19.0447 18.2362 19.108 18.2044Z" fill="white"/>
<path id="Vector_7" d="M23.6763 13V13.3809L23.4861 13H21.9952V13.3809L21.8047 13H19.7743C19.4254 13 19.1397 13.0635 18.8861 13.1905V13H17.4585V13.0318V13.1905C17.2999 13.0636 17.1096 13 16.8558 13H11.7481L11.399 13.7936L11.0501 13H9.90803H9.43212V13.3809L9.27348 13H9.24173H7.87759L7.243 14.4918L6.51341 16.1106L6.5 16.1424H6.51341H8.1314H8.15166L8.16316 16.1106L8.3536 15.6345H8.766L8.95634 16.1424H10.7962V16.1106V15.7615L10.9549 16.1423H11.8749L12.0334 15.7615V16.1106V16.1424H12.7631H16.4115H16.4432V15.3171H16.5068C16.5702 15.3171 16.5702 15.3171 16.5702 15.4123V16.1106H18.8544V15.9202C19.0447 16.0155 19.3301 16.1106 19.7108 16.1106H20.6627L20.853 15.6029H21.2971L21.4874 16.1106H23.3274V15.7933V15.6346L23.613 16.1106H23.6763H23.7081H25.104V13H23.6764H23.6763ZM12.9218 15.6664H12.6045H12.4142V15.4761V13.9205L12.3824 13.9934V13.9925L11.6444 15.6664H11.6211H11.4514H11.1769L10.4155 13.9205V15.6664H9.33695L9.11489 15.1903H8.03614L7.81404 15.6664H7.25637L8.19487 13.4444H8.98792L9.87618 15.5711V13.4444H10.0665H10.7167L10.7316 13.4762H10.7327L11.133 14.3479L11.4204 15.0009L11.4306 14.968L12.0651 13.4445H12.9218V15.6664H12.9218ZM15.1109 13.9205H13.8736V14.3332H15.0791V14.7775H13.8736V15.222H15.1109V15.698H13.3343V13.4445H15.1109V13.9205ZM17.3736 14.739C17.3745 14.7398 17.3755 14.7403 17.3765 14.7409C17.3885 14.7536 17.3988 14.7664 17.4075 14.7786C17.4683 14.8583 17.5175 14.9768 17.5199 15.1506C17.5201 15.1536 17.5202 15.1566 17.5204 15.1596C17.5204 15.1614 17.5207 15.1629 17.5207 15.1646C17.5207 15.1656 17.5207 15.1664 17.5207 15.1674C17.5214 15.1849 17.5218 15.2027 17.5218 15.222V15.6664H17.0461V15.4124C17.0461 15.2854 17.0461 15.0949 16.9508 14.968C16.9208 14.938 16.8904 14.9182 16.8574 14.9042C16.8099 14.8734 16.7198 14.8729 16.5702 14.8729H15.999V15.6664H15.4598V13.4445H16.6654C16.9508 13.4445 17.1412 13.4445 17.2999 13.5397C17.4553 13.6331 17.5492 13.788 17.5528 14.0333C17.5454 14.371 17.3287 14.5564 17.1729 14.6189C17.1729 14.6189 17.2787 14.6402 17.3736 14.739ZM18.442 15.6664H17.9026V13.4444H18.442V15.6664ZM24.6283 15.6664H23.9302L22.9151 13.984V15.3806L22.9118 15.3773V15.6677H22.3758V15.6664H21.8364L21.6461 15.1903H20.5356L20.3453 15.698H19.7425C19.4889 15.698 19.1714 15.6346 18.9812 15.4442C18.7908 15.2538 18.6958 14.9998 18.6958 14.5872C18.6958 14.2698 18.7591 13.9522 18.9812 13.6984C19.1397 13.5078 19.4253 13.4445 19.7742 13.4445H20.282V13.9205H19.7742C19.5839 13.9205 19.4889 13.9522 19.3617 14.0476C19.2668 14.1428 19.2032 14.3332 19.2032 14.5553C19.2032 14.8093 19.235 14.968 19.3617 15.0949C19.4571 15.1903 19.5839 15.2221 19.7425 15.2221H19.9646L20.6942 13.4763H21.0116H21.4874L22.3758 15.603V15.4945V14.7776V14.7142V13.4764H23.1688L24.0886 15.0316V13.4764H24.6282V15.6665H24.6283V15.6664Z" fill="white"/>
<path id="Vector_8" d="M16.9214 14.371C16.9306 14.3611 16.939 14.3498 16.9461 14.337C16.9749 14.2915 17.0078 14.2095 16.9901 14.0977C16.9894 14.0874 16.9875 14.078 16.9853 14.0688C16.9847 14.0662 16.9848 14.064 16.9841 14.0614L16.9838 14.0615C16.968 14.0071 16.9277 13.9738 16.8875 13.9535C16.8239 13.9219 16.7287 13.9219 16.6336 13.9219H15.999V14.4295H16.6336C16.7287 14.4295 16.824 14.4295 16.8875 14.3977C16.8971 14.3929 16.9055 14.3863 16.9137 14.3789L16.9138 14.3793C16.9138 14.3793 16.9171 14.3759 16.9214 14.371Z" fill="white"/>
<path id="Vector_9" d="M26.5001 18.8397C26.5001 18.6176 26.4367 18.3953 26.3416 18.2366V16.8083H26.3401V16.713C26.3401 16.713 25.0104 16.713 24.8125 16.713C24.6146 16.713 24.3746 16.9034 24.3746 16.9034V16.713H22.9153C22.6931 16.713 22.4078 16.7765 22.2807 16.9034V16.713H19.6794V16.8083V16.9033C19.4892 16.7448 19.1399 16.7129 18.9814 16.7129H17.2682V16.8083V16.9033C17.1096 16.7447 16.7288 16.7129 16.5383 16.7129H14.6351L14.1909 17.189L13.7784 16.7129H13.6456H13.4295H10.9233V16.8082V17.059V19.9189H13.7151L14.1738 19.4598L14.5714 19.9189H14.6033H16.2119H16.2848H16.3166H16.3482V19.6015V19.1889H16.5069C16.7288 19.1889 17.0144 19.1889 17.2365 19.0935V19.887V19.9506H18.6641V19.887V19.1253H18.7274C18.8227 19.1253 18.8227 19.1253 18.8227 19.2205V19.887V19.9506H23.1371C23.4229 19.9506 23.7082 19.887 23.8668 19.7601V19.887V19.9506H25.2311C25.5164 19.9506 25.8022 19.9189 25.9925 19.7919C26.2846 19.6165 26.4687 19.3062 26.4961 18.936C26.4973 18.9251 26.4989 18.9141 26.4999 18.9031L26.4981 18.9013C26.4993 18.8808 26.5001 18.8605 26.5001 18.8397ZM16.5069 18.6493H15.8723V18.7443V18.9349V19.1254V19.4745H14.8295L14.2226 18.7762L14.2205 18.7785L14.1909 18.7443L13.493 19.4745H11.4626V17.2527H13.5247L14.0881 17.8701L14.2065 17.9994L14.2226 17.9827L14.8889 17.2527H16.5703C16.8966 17.2527 17.262 17.3333 17.4005 17.6655C17.4171 17.7313 17.4268 17.8044 17.4268 17.8875C17.4268 18.5223 16.9826 18.6493 16.5069 18.6493ZM19.6794 18.6175C19.7427 18.7125 19.7745 18.8397 19.7745 19.0302V19.4745H19.2353V19.1889C19.2353 19.0617 19.2353 18.8397 19.1399 18.7443C19.0767 18.6493 18.9496 18.6493 18.7594 18.6493H18.1884V19.4745H17.6491V17.2209H18.8546C19.1082 17.2209 19.3302 17.2209 19.4892 17.316C19.6477 17.4114 19.7745 17.5701 19.7745 17.824C19.7745 18.1731 19.5525 18.3635 19.3938 18.4271C19.5525 18.4903 19.6477 18.554 19.6794 18.6175ZM21.8684 17.6968H20.631V18.1095H21.8366V18.554H20.631V18.9984H21.8684V19.4745H20.0919V17.2209H21.8684V17.6968ZM23.2008 19.4745H22.1855V18.9985H23.2008C23.2958 18.9985 23.3594 18.9985 23.423 18.9349C23.4547 18.9031 23.4862 18.8397 23.4862 18.7762C23.4862 18.7126 23.4547 18.6494 23.423 18.6176C23.3911 18.5858 23.3276 18.5541 23.2324 18.5541C22.7248 18.5223 22.1221 18.5541 22.1221 17.8558C22.1221 17.5384 22.3124 17.1892 22.8835 17.1892H23.9304V17.7287H22.947C22.8518 17.7287 22.7883 17.7287 22.7248 17.7605C22.6615 17.7923 22.6615 17.8558 22.6615 17.9192C22.6615 18.0145 22.7248 18.0463 22.7882 18.0778C22.8518 18.1096 22.9152 18.1096 22.9786 18.1096H23.2641C23.5497 18.1096 23.74 18.1731 23.8669 18.3001C23.9621 18.3954 24.0256 18.5541 24.0256 18.7762C24.0256 19.2522 23.7401 19.4745 23.2008 19.4745ZM25.9291 19.2522C25.8023 19.3793 25.5801 19.4745 25.2628 19.4745H24.2478V18.9985H25.2627C25.358 18.9985 25.4216 18.9985 25.4849 18.9349C25.5165 18.9031 25.5484 18.8397 25.5484 18.7762C25.5484 18.7126 25.5165 18.6494 25.4849 18.6176C25.4532 18.5858 25.3898 18.5541 25.2946 18.5541C24.7871 18.5223 24.1842 18.5541 24.1842 17.8559C24.1842 17.5542 24.3567 17.2817 24.7822 17.2007C24.833 17.1937 24.8868 17.1892 24.9456 17.1892H25.9926V17.7287H25.2946H25.0409H25.0091C24.9139 17.7287 24.8505 17.7287 24.7871 17.7605C24.7552 17.7923 24.7234 17.8558 24.7234 17.9192C24.7234 18.0145 24.7552 18.0463 24.8505 18.0778C24.9139 18.1096 24.9774 18.1096 25.0409 18.1096H25.0724H25.3263C25.4649 18.1096 25.5698 18.1267 25.6657 18.1604C25.7536 18.1923 26.0445 18.3225 26.1096 18.6623C26.1152 18.6979 26.1194 18.7351 26.1194 18.7762C26.1194 18.9667 26.0559 19.1254 25.9291 19.2522Z" fill="white"/>
</g>
</g>
</g>
<defs>
<clipPath id="clip0_3080_57682">
<rect width="32" height="32" fill="white" transform="translate(0.5)"/>
</clipPath>
</defs>
</svg>
