<svg width="21" height="8" viewBox="0 0 21 8" fill="none" xmlns="http://www.w3.org/2000/svg">
<g id="Frame">
<path id="Union" fill-rule="evenodd" clip-rule="evenodd" d="M4.41475 0.557617C4.45463 0.940418 4.30331 1.31498 4.08027 1.59394C3.84923 1.86509 3.48306 2.08004 3.11655 2.04825C3.06877 1.68154 3.25208 1.29129 3.45917 1.05221C3.68986 0.773004 4.08826 0.573853 4.41475 0.557617ZM3.5546 2.31034C3.79265 2.21655 4.08688 2.10064 4.41062 2.11991C4.61718 2.1359 5.21291 2.19947 5.59419 2.76342C5.59229 2.76486 5.58808 2.76762 5.58186 2.77169C5.48404 2.83569 4.88769 3.22586 4.89525 3.99536C4.90266 4.91214 5.6506 5.25585 5.75009 5.30157C5.75668 5.30459 5.76042 5.30631 5.76092 5.30681C5.7605 5.30807 5.75975 5.31048 5.75866 5.31398C5.73906 5.37689 5.60976 5.79184 5.31627 6.22074C5.04619 6.61831 4.76811 7.00773 4.32326 7.01568C4.11388 7.01956 3.97261 6.95903 3.82561 6.89605C3.67145 6.83 3.51098 6.76124 3.25903 6.76124C2.99474 6.76124 2.82653 6.8322 2.6648 6.90043C2.52509 6.95936 2.39021 7.01626 2.2024 7.02362C1.77354 7.03937 1.44804 6.60202 1.17796 6.20485C0.621806 5.40207 0.200842 3.93988 0.772738 2.95418C1.05081 2.46146 1.55919 2.15165 2.10715 2.1436C2.34636 2.1392 2.57532 2.22969 2.77511 2.30864C2.92691 2.36863 3.06186 2.42197 3.17167 2.42197C3.27125 2.42197 3.40127 2.37075 3.5546 2.31034Z" fill="#182238"/>
<path id="Union_2" fill-rule="evenodd" clip-rule="evenodd" d="M9.99599 0C11.1528 0 11.9584 0.797387 11.9584 1.9584C11.9584 3.12352 11.1362 3.92508 9.96695 3.92508H8.68615V5.96196H7.76074V0H9.99599ZM8.68615 3.1483H9.74798C10.5537 3.1483 11.0122 2.71453 11.0122 1.96252C11.0122 1.2106 10.5537 0.780906 9.75215 0.780906H8.68615V3.1483ZM12.2001 4.72636C12.2001 3.96611 12.7826 3.49923 13.8156 3.4414L15.0055 3.3712V3.03657C15.0055 2.55317 14.679 2.26396 14.1338 2.26396C13.6172 2.26396 13.2949 2.51182 13.2165 2.90021H12.3737C12.4232 2.11513 13.0925 1.53671 14.1667 1.53671C15.2203 1.53671 15.8937 2.09448 15.8937 2.96623V5.96168H15.0384V5.2469H15.0179C14.7659 5.7303 14.2163 6.03604 13.6462 6.03604C12.7951 6.03604 12.2001 5.50722 12.2001 4.72636ZM15.0055 4.33385V3.99093L13.9354 4.057C13.4024 4.09423 13.1008 4.32973 13.1008 4.70154C13.1008 5.08159 13.4148 5.3295 13.8941 5.3295C14.518 5.32955 15.0055 4.89986 15.0055 4.33385ZM16.7012 6.83778V7.56085C16.7672 7.57317 16.9903 7.58151 17.0648 7.58141C17.9655 7.58141 18.3952 7.24266 18.7669 6.18902L20.3949 1.61533H19.4529L18.3538 5.15206H18.3373L17.2382 1.61533H16.2715L17.8415 5.96598C17.8415 5.96769 17.828 6.01248 17.8123 6.06503C17.7899 6.13956 17.7629 6.22968 17.7629 6.23454C17.6266 6.68077 17.4034 6.85426 16.9903 6.85426C16.9159 6.85426 16.7672 6.85426 16.7012 6.83778Z" fill="#182238"/>
</g>
</svg>
