<svg width="12" height="13" viewBox="0 0 12 13" fill="none" xmlns="http://www.w3.org/2000/svg">
<g id="bitcoin 1" clip-path="url(#clip0_3080_57719)">
<g id="Group">
<g id="Group_2">
<path id="Vector" d="M11.8195 7.78156C11.0181 10.9958 7.76263 12.952 4.54797 12.1505C1.33463 11.3491 -0.621539 8.09337 0.180194 4.87928C0.981183 1.66462 4.23671 -0.291738 7.45044 0.509623C10.6649 1.311 12.6209 4.56709 11.8195 7.78156Z" fill="#F7931A"/>
<path id="Vector_2" d="M4.02641 7.3407C3.99378 7.42171 3.9111 7.5432 3.72472 7.49707C3.7313 7.50664 3.24624 7.37764 3.24624 7.37764L2.91943 8.13119L3.7761 8.34476C3.93547 8.38469 4.09167 8.4265 4.24541 8.46589L3.97297 9.55975L4.63053 9.72381L4.90034 8.64156C5.07997 8.69031 5.25433 8.73531 5.42495 8.77769L5.15608 9.85486L5.81439 10.0189L6.08683 8.92712C7.20939 9.13955 8.05349 9.05387 8.4088 8.03856C8.69511 7.22108 8.39456 6.74951 7.80394 6.44202C8.23407 6.34283 8.55805 6.0599 8.64448 5.47546C8.76391 4.6771 8.15604 4.24791 7.32486 3.9616L7.59449 2.8801L6.93617 2.71604L6.67368 3.76903C6.50062 3.7259 6.32287 3.68521 6.14625 3.6449L6.41062 2.58496L5.75269 2.4209L5.48288 3.50201C5.33962 3.46939 5.19901 3.43712 5.06251 3.4032L5.06325 3.39982L4.15538 3.17313L3.98025 3.87625C3.98025 3.87625 4.46869 3.98819 4.45837 3.99512C4.725 4.06169 4.77318 4.23811 4.76513 4.378L4.02641 7.3407ZM7.14037 7.58464C6.93694 8.40211 5.56052 7.96018 5.11427 7.84937L5.47577 6.40021C5.92201 6.51157 7.35299 6.73207 7.14037 7.58464ZM7.34399 5.46366C7.15837 6.20728 6.01275 5.82947 5.64114 5.73685L5.96888 4.42247C6.3405 4.5151 7.53731 4.68797 7.34399 5.46366Z" fill="white"/>
</g>
</g>
</g>
<defs>
<clipPath id="clip0_3080_57719">
<rect width="12" height="12" fill="white" transform="translate(0 0.330078)"/>
</clipPath>
</defs>
</svg>
