<svg width="18" height="19" viewBox="0 0 18 19" fill="none" xmlns="http://www.w3.org/2000/svg">
<g id="Frame">
<path id="Vector" d="M12.7311 5.29113C12.8425 5.29113 12.9333 5.20265 12.9333 5.09416V2.36689C12.9333 2.25841 12.8425 2.16992 12.7311 2.16992H9.93123C8.27586 2.16992 6.9291 3.48174 6.9291 5.09416V7.62447H5.26472C5.15334 7.62447 5.0625 7.71295 5.0625 7.82144V10.5487C5.0625 10.6572 5.15334 10.7457 5.26472 10.7457H6.9291V16.973C6.9291 17.0814 7.01995 17.1699 7.13132 17.1699H9.93123C10.0426 17.1699 10.1334 17.0814 10.1334 16.973V10.7457H12.2645C12.3637 10.7457 12.4477 10.6763 12.4642 10.5811L12.9309 7.85416C12.9405 7.79689 12.924 7.73841 12.8854 7.69416C12.8472 7.65023 12.7909 7.62477 12.7311 7.62477H10.1334V5.29144L12.7311 5.29113Z" fill="white"/>
</g>
</svg>
