<svg width="18" height="18" viewBox="0 0 18 18" fill="none" xmlns="http://www.w3.org/2000/svg">
<g id="Frame">
<path id="Vector" d="M12.7311 4.62121C12.8425 4.62121 12.9333 4.53273 12.9333 4.42424V1.69697C12.9333 1.58848 12.8425 1.5 12.7311 1.5H9.93123C8.27586 1.5 6.9291 2.81182 6.9291 4.42424V6.95455H5.26472C5.15334 6.95455 5.0625 7.04303 5.0625 7.15152V9.87879C5.0625 9.98727 5.15334 10.0758 5.26472 10.0758H6.9291V16.303C6.9291 16.4115 7.01995 16.5 7.13132 16.5H9.93123C10.0426 16.5 10.1334 16.4115 10.1334 16.303V10.0758H12.2645C12.3637 10.0758 12.4477 10.0064 12.4642 9.91121L12.9309 7.18424C12.9405 7.12697 12.924 7.06849 12.8854 7.02424C12.8472 6.9803 12.7909 6.95485 12.7311 6.95485H10.1334V4.62152L12.7311 4.62121Z" fill="#1E6CF6"/>
</g>
</svg>
