<svg width="24" height="24" viewBox="0 0 24 24" fill="none" xmlns="http://www.w3.org/2000/svg">
<g id="Frame">
<path id="Vector" d="M20.3723 4.4523C19.3419 3.34977 17.8896 2.71469 16.3875 2.71001C14.8846 2.71001 13.4308 3.34314 12.3992 4.44724L12.009 4.87063L11.616 4.45269C10.6261 3.38525 9.27991 2.7681 7.82572 2.71507C7.79219 2.71624 7.75438 2.71391 7.71734 2.71235H7.71305C7.68225 2.71118 7.65379 2.71001 7.6265 2.71001C6.24327 2.71001 4.92397 3.22774 3.91189 4.16809C3.8113 4.25893 3.71813 4.35718 3.62807 4.45191C2.57817 5.58369 2 7.05932 2 8.60668C2 10.1541 2.57973 11.6312 3.63275 12.7615L11.5181 21.0765C11.6409 21.2071 11.8058 21.2811 11.9821 21.2846H12.0023C12.1731 21.2846 12.336 21.2199 12.4608 21.1026L12.4869 21.0714L20.3735 12.7498C21.4222 11.6188 22 10.1435 22 8.59655C22.0047 7.06088 21.4265 5.58876 20.3723 4.45191V4.4523ZM19.4569 11.7923L19.4546 11.795L12.0023 19.6507L11.9739 19.6211L4.60039 11.8449C3.77855 10.9603 3.32631 9.80863 3.32631 8.60162C3.32631 7.3946 3.77817 6.2484 4.59883 5.36497C5.3766 4.52365 6.47836 4.04139 7.62143 4.04139C8.65886 4.04139 9.64833 4.42735 10.4074 5.12833C10.4861 5.20201 10.5657 5.28154 10.6433 5.36419L11.5212 6.29207C11.7879 6.55367 12.2261 6.55016 12.4967 6.28349L13.3668 5.36809C14.1103 4.56692 15.1228 4.09909 16.2183 4.05153C17.3208 4.00942 18.3703 4.39344 19.1735 5.13339C19.2522 5.20708 19.3317 5.28622 19.4097 5.36965C20.2351 6.25269 20.6928 7.40357 20.6978 8.61097C20.6928 9.79382 20.2518 10.9236 19.4561 11.7923H19.4569Z" fill="#182238"/>
</g>
</svg>
