<svg width="18" height="19" viewBox="0 0 18 19" fill="none" xmlns="http://www.w3.org/2000/svg">
<g id="Frame">
<g id="Subtract">
<path d="M8.97002 12.2665C7.53817 12.2665 6.37347 11.1016 6.37347 9.66997C6.37347 8.23835 7.5384 7.07342 8.97002 7.07342C10.4016 7.07342 11.5666 8.23835 11.5666 9.66997C11.5666 11.1016 10.4016 12.2665 8.97002 12.2665Z" fill="white"/>
<path fill-rule="evenodd" clip-rule="evenodd" d="M16.2555 5.43085C16.4605 6.23426 16.4713 7.0268 16.4818 7.79335C16.4893 8.34606 16.4973 9.00114 16.4989 9.66866V9.67132C16.4973 10.3373 16.4893 10.9928 16.4818 11.5464C16.4713 12.313 16.4605 13.1057 16.2555 13.9089C16.0217 14.8251 15.5618 15.5681 14.8885 16.1171C14.1899 16.6869 13.3121 17.0191 12.3499 17.0775C11.328 17.1397 10.2814 17.1699 9.14999 17.1699H8.99921C7.79542 17.1714 6.69955 17.1417 5.64898 17.0777C4.68701 17.0193 3.80899 16.6871 3.11038 16.1173C2.4371 15.5681 1.97721 14.8253 1.74338 13.9091C1.53842 13.1057 1.52754 12.3132 1.5171 11.5466C1.50955 10.9915 1.50155 10.3348 1.5 9.67154V9.66888C1.50155 9.00536 1.50955 8.34851 1.5171 7.79358C1.52754 7.02702 1.53842 6.23426 1.74338 5.43085C1.97721 4.51463 2.4371 3.77161 3.11038 3.22268C3.80899 2.65287 4.68679 2.32089 5.64898 2.26227C6.71643 2.19742 7.81252 2.16722 8.99966 2.17011C10.1857 2.16767 11.2816 2.19742 12.3499 2.26227C13.3119 2.32089 14.1899 2.65287 14.8885 3.22268C15.5618 3.77161 16.0217 4.51463 16.2555 5.43085ZM8.97002 6.04883C6.97325 6.04883 5.34888 7.6732 5.34888 9.66997C5.34888 11.6667 6.97325 13.2911 8.97002 13.2911C10.9668 13.2911 12.5912 11.6667 12.5912 9.66997C12.5912 7.6732 10.9668 6.04883 8.97002 6.04883ZM13.8942 5.67207C13.8942 6.11848 13.5323 6.48037 13.0859 6.48037C12.6395 6.48037 12.2776 6.11848 12.2776 5.67207C12.2776 5.22566 12.6395 4.86377 13.0859 4.86377C13.5323 4.86377 13.8942 5.22566 13.8942 5.67207Z" fill="white"/>
</g>
</g>
</svg>
