<svg width="18" height="19" viewBox="0 0 18 19" fill="none" xmlns="http://www.w3.org/2000/svg">
<g id="Frame">
<g id="Group">
<path id="Vector" d="M16.4417 6.91019C16.3801 6.08002 16.2472 5.49306 16.0106 5.00339C15.9296 4.83476 15.8323 4.67586 15.7254 4.52669C15.4758 4.18295 15.1744 3.88136 14.8308 3.63166C14.3122 3.25549 13.6802 3.04146 12.7824 2.94418C11.9883 2.85986 10.9868 2.85986 9.71953 2.85986H8.27398C7.0067 2.85986 6.00519 2.85986 5.21111 2.94742C4.31331 3.04471 3.68129 3.25549 3.16271 3.63491C2.81914 3.88461 2.51772 4.18619 2.26815 4.52993C2.16119 4.67911 2.06396 4.83801 1.98293 5.00663C1.74957 5.49306 1.61668 6.08326 1.5551 6.91019C1.5 7.64308 1.5 8.52838 1.5 9.65041V9.66986C1.5 9.99091 1.76253 10.2536 2.08341 10.2536C2.40428 10.2536 2.66681 9.99091 2.66681 9.66986C2.66681 8.56405 2.66681 7.68848 2.71867 6.99775C2.73812 6.75778 2.7608 6.54699 2.78997 6.35891L3.72342 7.29285C4.8481 8.41812 5.73941 9.30991 6.52377 9.90983C7.41508 10.5908 8.17675 10.8957 8.99352 10.8957C9.81029 10.8957 10.572 10.5908 11.4633 9.90983C12.2509 9.30991 13.1389 8.41812 14.2669 7.29285L15.2003 6.35891C15.2295 6.54699 15.2554 6.75778 15.2716 6.99775C15.3235 7.68523 15.3235 8.56081 15.3235 9.66986C15.3235 10.9702 15.3235 11.9074 15.2457 12.6403C15.1711 13.3343 15.0285 13.7786 14.7757 14.1288C14.5975 14.372 14.3835 14.586 14.1405 14.7644C13.7904 15.0173 13.3464 15.16 12.6528 15.2346C11.9235 15.3124 10.9836 15.3124 9.68388 15.3124H8.3064C7.98552 15.3124 7.72299 15.5751 7.72299 15.8961C7.72299 16.2172 7.98552 16.4799 8.3064 16.4799H9.71953C10.9868 16.4799 11.9883 16.4799 12.7824 16.3923C13.6802 16.295 14.3122 16.0842 14.8308 15.7048C15.1744 15.4551 15.4758 15.1535 15.7254 14.8098C16.1013 14.2909 16.3153 13.6586 16.4125 12.7603C16.5 11.9658 16.5 10.9638 16.5 9.69581V9.64392C16.4968 8.52838 16.4968 7.64308 16.4417 6.91019ZM13.476 6.43998C12.3222 7.59443 11.486 8.43109 10.7632 8.98238C10.0793 9.50448 9.55099 9.72823 9 9.72823C8.44901 9.72823 7.9207 9.50448 7.23682 8.98238C6.51405 8.43109 5.67783 7.59443 4.52398 6.43998L3.25022 5.16878C3.422 4.94178 3.62295 4.74396 3.85307 4.57858C4.20311 4.32563 4.64715 4.18295 5.34075 4.10836C6.07001 4.02729 7.0067 4.02729 8.3064 4.02729H9.69036C10.9901 4.02729 11.9268 4.02729 12.6592 4.10512C13.3529 4.17971 13.7969 4.31915 14.1469 4.57533C14.3771 4.74072 14.578 4.94178 14.7498 5.16553L13.476 6.43998Z" fill="#182238"/>
<path id="Union" fill-rule="evenodd" clip-rule="evenodd" d="M4.15774 13.0145H2.08341C1.76253 13.0145 1.5 12.7519 1.5 12.4311C1.5 12.1102 1.76253 11.8477 2.08341 11.8477H4.15774C4.47861 11.8477 4.74114 12.1102 4.74114 12.4311C4.74114 12.7519 4.47861 13.0145 4.15774 13.0145ZM2.08341 13.9219H6.23207C6.55294 13.9219 6.81547 14.1844 6.81547 14.5053C6.81547 14.8262 6.55294 15.0887 6.23207 15.0887H2.08341C1.76253 15.0887 1.5 14.8262 1.5 14.5053C1.5 14.1844 1.76253 13.9219 2.08341 13.9219Z" fill="#182238"/>
</g>
</g>
</svg>
