<svg width="18" height="19" viewBox="0 0 18 19" fill="none" xmlns="http://www.w3.org/2000/svg">
<g id="Frame">
<path id="Vector" d="M16.4417 6.91019C16.3801 6.08002 16.2472 5.49306 16.0106 5.00339C15.9911 4.96448 15.9717 4.92556 15.9555 4.89638C15.9101 4.81206 15.8647 4.73099 15.8129 4.65316C15.7805 4.60452 15.7513 4.56236 15.7254 4.52345C15.5698 4.30942 15.3915 4.10836 15.1938 3.92676C15.0771 3.81975 14.9572 3.71922 14.8308 3.62842C14.7239 3.55059 14.6104 3.47925 14.4905 3.41439C14.0335 3.16793 13.5084 3.02201 12.7824 2.94418C12.5912 2.92472 12.3838 2.90851 12.1471 2.89553C11.473 2.85986 10.6595 2.85986 9.71953 2.85986H8.27398C7.33405 2.85986 6.52053 2.85986 5.84637 2.89553C5.60977 2.90851 5.40233 2.92472 5.21111 2.94418C4.52398 3.02201 3.99892 3.16145 3.55812 3.38845C3.41551 3.46303 3.28911 3.54086 3.16595 3.63166C3.03954 3.72246 2.91962 3.82299 2.80294 3.93001C2.60847 4.11161 2.42697 4.31266 2.27139 4.52669C2.24222 4.56561 2.21305 4.60776 2.18388 4.65641C2.13202 4.73423 2.08341 4.81531 2.04127 4.89962C2.02182 4.93529 2.00562 4.96772 1.98617 5.00339C1.74957 5.49306 1.61668 6.08326 1.5551 6.91019C1.5 7.64308 1.5 8.52838 1.5 9.65041V9.70229C1.5 10.9702 1.5 11.9723 1.58751 12.7668C1.68475 13.6651 1.89542 14.2974 2.27463 14.8163C2.5242 15.16 2.82563 15.4616 3.16919 15.7113C3.68777 16.0875 4.31979 16.3015 5.21759 16.3988C6.00519 16.4799 7.0067 16.4799 8.27398 16.4799H9.71953C10.9868 16.4799 11.9883 16.4799 12.7824 16.3923C13.6802 16.295 14.3122 16.0842 14.8308 15.7048C15.1744 15.4551 15.4758 15.1535 15.7254 14.8098C16.1013 14.2909 16.3153 13.6586 16.4125 12.7603C16.5 11.9658 16.5 10.9638 16.5 9.69581V9.64392C16.4968 8.52838 16.4968 7.64308 16.4417 6.91019ZM13.476 6.43998C13.2005 6.71238 12.8926 7.02369 12.6139 7.29933C12.0532 7.85386 11.6642 8.22031 11.3239 8.52189C11.1197 8.70025 10.935 8.85266 10.7632 8.98562C10.3451 9.30342 9.99503 9.50772 9.66119 9.61798C9.59313 9.64068 9.52182 9.66013 9.45376 9.67635C9.30143 9.71202 9.15558 9.72823 9 9.72823C8.84443 9.72823 8.69533 9.71202 8.54624 9.67635C8.47818 9.66013 8.41011 9.64068 8.33881 9.61798C8.00497 9.50448 7.65493 9.30342 7.23682 8.98562C7.07476 8.86239 6.90298 8.71971 6.71176 8.55432C6.35523 8.24301 5.9436 7.85386 5.33751 7.25393C5.09443 7.01396 4.8481 6.76751 4.52398 6.44322L3.25022 5.16878C3.33124 5.06501 3.41551 4.96448 3.50951 4.87043C3.56137 4.81855 3.61647 4.76666 3.67481 4.71802C3.73315 4.66938 3.79149 4.62073 3.85307 4.57858C4.20311 4.32563 4.64715 4.18295 5.34075 4.10836C6.07001 4.02729 7.0067 4.02729 8.3064 4.02729H9.69036C10.9901 4.02729 11.9268 4.02729 12.6592 4.10512C13.3529 4.17971 13.7969 4.31915 14.1469 4.57533C14.2085 4.62073 14.2669 4.66613 14.3252 4.71478C14.484 4.84773 14.6266 5.00015 14.7498 5.16553L13.476 6.43998ZM7.27571 10.4125C7.32433 10.4417 7.37619 10.4676 7.42481 10.4935C7.94987 10.7627 8.46197 10.8957 8.99676 10.8957C9.53155 10.8957 10.0436 10.7627 10.5687 10.4935C10.6173 10.4676 10.6692 10.4417 10.7178 10.4125C10.9576 10.2763 11.204 10.1141 11.4698 9.90983C11.5767 9.82876 11.6901 9.73796 11.8133 9.63419C12.5166 9.04723 13.2913 8.27219 14.2733 7.29285L15.2068 6.35891C15.21 6.37512 15.2133 6.39133 15.2133 6.40755C15.2392 6.57618 15.2586 6.76102 15.2748 6.97181L15.2781 6.99775C15.2813 7.03666 15.2846 7.07882 15.2878 7.11773C15.304 7.36743 15.3137 7.65605 15.3235 7.99979C15.3267 8.23976 15.3299 8.51541 15.3332 8.86888C15.3332 9.11858 15.3332 9.38449 15.3332 9.66662C15.3332 10.967 15.3332 11.9042 15.2554 12.6371C15.1809 13.331 15.0382 13.7753 14.7854 14.1255C14.6072 14.3688 14.3933 14.5828 14.1502 14.7611C13.8001 15.0141 13.3561 15.1568 12.6625 15.2314C11.9332 15.3092 10.9933 15.3092 9.6936 15.3092H8.3064C7.0067 15.3092 6.07001 15.3092 5.33751 15.2314C4.64391 15.1568 4.19987 15.0141 3.84983 14.7611C3.60674 14.5828 3.39283 14.3688 3.21456 14.1255C2.96175 13.7753 2.81914 13.331 2.7446 12.6371C2.66681 11.9074 2.66681 10.9702 2.66681 9.66986C2.66681 9.45908 2.66681 9.25478 2.66681 9.06021C2.66681 8.86563 2.66681 8.68079 2.67005 8.50568C2.67329 8.18463 2.67653 7.92521 2.68302 7.69172C2.68626 7.58795 2.6895 7.49391 2.69274 7.39986C2.69598 7.30258 2.70246 7.20853 2.70895 7.11773C2.71219 7.07558 2.71543 7.03666 2.71867 6.99775L2.72191 6.97181C2.73812 6.76102 2.75756 6.57618 2.78349 6.40755C2.78673 6.39133 2.78997 6.37512 2.78997 6.35891L3.72342 7.29285C4.70549 8.27543 5.48012 9.05048 6.18345 9.63419C6.30661 9.73796 6.42005 9.82876 6.52701 9.90983C6.79278 10.1141 7.03587 10.2795 7.27571 10.4125Z" fill="#FFD100"/>
</g>
</svg>
