<svg width="33" height="32" viewBox="0 0 33 32" fill="none" xmlns="http://www.w3.org/2000/svg">
<g id="paypal" clip-path="url(#clip0_3080_57706)">
<g id="Group">
<rect id="Rectangle 492" x="0.5" y="6" width="32" height="20" rx="2" fill="white"/>
<g id="Group 14">
<path id="Vector" d="M20.515 13.3301H18.973C18.8823 13.3301 18.7916 13.4208 18.7462 13.5115L18.1113 17.5024C18.1113 17.5931 18.1567 17.6385 18.2474 17.6385H19.0637C19.1544 17.6385 19.1998 17.5931 19.1998 17.5024L19.3812 16.3686C19.3812 16.2779 19.4719 16.1872 19.6079 16.1872H20.1068C21.1499 16.1872 21.7394 15.6884 21.8755 14.6906C21.9662 14.2825 21.8755 13.9196 21.6941 13.6929C21.422 13.4661 21.0138 13.3301 20.515 13.3301ZM20.6964 14.8267C20.6057 15.3709 20.1975 15.3709 19.7893 15.3709H19.5172L19.6986 14.3278C19.6986 14.2825 19.744 14.2371 19.8347 14.2371H19.9254C20.1975 14.2371 20.4696 14.2371 20.6057 14.4185C20.6964 14.4639 20.6964 14.5999 20.6964 14.8267Z" fill="#139AD6"/>
<path id="Vector_2" d="M9.40363 13.3301H7.86168C7.77097 13.3301 7.68027 13.4208 7.63492 13.5115L7 17.5024C7 17.5931 7.04535 17.6385 7.13605 17.6385H7.86168C7.95238 17.6385 8.04308 17.5478 8.08844 17.4571L8.26984 16.3686C8.26984 16.2779 8.36054 16.1872 8.4966 16.1872H8.99546C10.0385 16.1872 10.6281 15.6884 10.7642 14.6906C10.8549 14.2825 10.7642 13.9196 10.5828 13.6929C10.3107 13.4661 9.94785 13.3301 9.40363 13.3301ZM9.58503 14.8267C9.49433 15.3709 9.08617 15.3709 8.678 15.3709H8.45125L8.63265 14.3278C8.63265 14.2825 8.678 14.2371 8.76871 14.2371H8.85941C9.13152 14.2371 9.40363 14.2371 9.53968 14.4185C9.58503 14.4639 9.63039 14.5999 9.58503 14.8267Z" fill="#263B80"/>
<path id="Vector_3" d="M14.0747 14.7811H13.3491C13.3037 14.7811 13.213 14.8265 13.213 14.8718L13.1676 15.0986L13.1223 15.0079C12.9409 14.7811 12.6234 14.6904 12.2606 14.6904C11.4443 14.6904 10.7187 15.3254 10.5826 16.187C10.4919 16.6405 10.628 17.0487 10.8547 17.3208C11.0815 17.5929 11.3989 17.6836 11.8071 17.6836C12.4874 17.6836 12.8502 17.2755 12.8502 17.2755L12.8048 17.5022C12.8048 17.5929 12.8502 17.6383 12.9409 17.6383H13.6212C13.7119 17.6383 13.8026 17.5476 13.8479 17.4569L14.2561 14.9172C14.2107 14.8718 14.12 14.7811 14.0747 14.7811ZM13.0316 16.2324C12.9409 16.6405 12.6234 16.958 12.1699 16.958C11.9432 16.958 11.7617 16.8673 11.671 16.7766C11.5803 16.6405 11.535 16.4591 11.535 16.2324C11.5803 15.8242 11.9432 15.5068 12.3513 15.5068C12.5781 15.5068 12.7141 15.5975 12.8502 15.6882C12.9862 15.8242 13.0316 16.051 13.0316 16.2324Z" fill="#263B80"/>
<path id="Vector_4" d="M25.1406 14.7811H24.415C24.3696 14.7811 24.2789 14.8265 24.2789 14.8718L24.2336 15.0986L24.1882 15.0079C24.0068 14.7811 23.6893 14.6904 23.3265 14.6904C22.5102 14.6904 21.7846 15.3254 21.6485 16.187C21.5578 16.6405 21.6939 17.0487 21.9206 17.3208C22.1474 17.5929 22.4649 17.6836 22.873 17.6836C23.5533 17.6836 23.9161 17.2755 23.9161 17.2755L23.8707 17.5022C23.8707 17.5929 23.9161 17.6383 24.0068 17.6383H24.6871C24.7778 17.6383 24.8685 17.5476 24.9138 17.4569L25.322 14.9172C25.2766 14.8718 25.2313 14.7811 25.1406 14.7811ZM24.0975 16.2324C24.0068 16.6405 23.6893 16.958 23.2358 16.958C23.0091 16.958 22.8277 16.8673 22.737 16.7766C22.6463 16.6405 22.6009 16.4591 22.6009 16.2324C22.6463 15.8242 23.0091 15.5068 23.4172 15.5068C23.644 15.5068 23.78 15.5975 23.9161 15.6882C24.0975 15.8242 24.1429 16.051 24.0975 16.2324Z" fill="#139AD6"/>
<path id="Vector_5" d="M18.0204 14.7812H17.2494C17.1587 14.7812 17.1134 14.8266 17.068 14.872L16.0703 16.4139L15.6168 14.9627C15.5714 14.872 15.5261 14.8266 15.39 14.8266H14.6644C14.5737 14.8266 14.5283 14.9173 14.5283 15.008L15.3446 17.4116L14.5737 18.5001C14.5283 18.5908 14.5737 18.7268 14.6644 18.7268H15.39C15.4807 18.7268 15.5261 18.6815 15.5714 18.6361L18.0657 15.0534C18.2018 14.9173 18.1111 14.7812 18.0204 14.7812Z" fill="#263B80"/>
<path id="Vector_6" d="M26.0021 13.4659L25.3672 17.5475C25.3672 17.6383 25.4125 17.6836 25.5032 17.6836H26.1382C26.2289 17.6836 26.3196 17.5929 26.3649 17.5022L26.9998 13.5113C26.9998 13.4206 26.9545 13.3752 26.8638 13.3752H26.1382C26.0928 13.3299 26.0475 13.3752 26.0021 13.4659Z" fill="#139AD6"/>
</g>
</g>
</g>
<defs>
<clipPath id="clip0_3080_57706">
<rect width="32" height="32" fill="white" transform="translate(0.5)"/>
</clipPath>
</defs>
</svg>
