<svg width="18" height="19" viewBox="0 0 18 19" fill="none" xmlns="http://www.w3.org/2000/svg">
<g id="Frame">
<g id="Group">
<path id="Rectangle 510 (Stroke)" fill-rule="evenodd" clip-rule="evenodd" d="M11.5494 3.18242H6.44941C5.39317 3.18242 4.53691 4.03868 4.53691 5.09492V14.2449C4.53691 15.3012 5.39317 16.1574 6.44941 16.1574H11.5494C12.6057 16.1574 13.4619 15.3012 13.4619 14.2449V5.09492C13.4619 4.03868 12.6057 3.18242 11.5494 3.18242ZM6.44941 2.16992C4.83398 2.16992 3.52441 3.47949 3.52441 5.09492V14.2449C3.52441 15.8604 4.83398 17.1699 6.44941 17.1699H11.5494C13.1648 17.1699 14.4744 15.8604 14.4744 14.2449V5.09492C14.4744 3.47949 13.1648 2.16992 11.5494 2.16992H6.44941Z" fill="#FFD100"/>
<path id="Vector" d="M9.00448 14.6349C9.51771 14.6349 9.93376 14.2189 9.93376 13.7057C9.93376 13.1924 9.51771 12.7764 9.00448 12.7764C8.49125 12.7764 8.0752 13.1924 8.0752 13.7057C8.0752 14.2189 8.49125 14.6349 9.00448 14.6349Z" fill="#FFD100"/>
</g>
</g>
</svg>
