<svg width="18" height="18" viewBox="0 0 18 18" fill="none" xmlns="http://www.w3.org/2000/svg">
<g id="Layer_1">
<path id="Vector" d="M4.77011 10.1743C4.97761 10.2542 5.1625 10.1774 5.22172 9.95862C5.26376 9.80726 5.36186 9.42639 5.40661 9.26609C5.46583 9.05043 5.44323 8.97497 5.27687 8.78654C4.91296 8.37754 4.68106 7.84709 4.68106 7.09696C4.68106 4.9189 6.38622 2.9699 9.11983 2.9699C11.5402 2.9699 12.8706 4.38399 12.8706 6.27182C12.8706 8.75618 11.7201 10.853 10.0135 10.853C9.06965 10.853 8.36353 10.1078 8.58956 9.19376C8.86125 8.10205 9.38654 6.92416 9.38654 6.13608C9.38654 5.43104 8.99009 4.843 8.1705 4.843C7.20581 4.843 6.43143 5.79629 6.43143 7.0724C6.43143 7.88594 6.71939 8.43648 6.71939 8.43648C6.71939 8.43648 5.73255 12.4309 5.55986 13.1311C5.21539 14.525 5.50787 16.2329 5.53228 16.4048C5.54675 16.5075 5.68463 16.5316 5.74701 16.4548C5.83607 16.3446 6.9843 14.989 7.37488 13.6352C7.48518 13.2512 8.00821 11.2669 8.00821 11.2669C8.32194 11.838 9.23736 12.3403 10.2111 12.3403C13.1088 12.3403 15.0744 9.81574 15.0748 6.43568C15.0748 3.87988 12.8095 1.5 9.3671 1.5C5.08474 1.5 2.9248 4.43489 2.9248 6.88219C2.9248 8.3637 3.51248 9.68223 4.77011 10.1743Z" fill="#B72E29"/>
</g>
</svg>
