<svg width="24" height="24" viewBox="0 0 24 24" fill="none" xmlns="http://www.w3.org/2000/svg">
<g id="search">
<path id="Vector" d="M20.7741 19.682L17.2539 16.162L17.2827 16.126C20.0832 12.6852 19.563 7.60764 16.1219 4.80621C14.4564 3.45022 12.3601 2.82311 10.2227 3.04311C8.08425 3.26209 6.15964 4.30042 4.80255 5.96688C2.00201 9.40775 2.52223 14.4863 5.96328 17.2867C8.90673 19.682 13.1795 19.682 16.123 17.2867L16.1589 17.2579L19.6802 20.779C19.8262 20.9219 20.0195 21 20.2261 21C20.4327 21 20.6291 20.9208 20.7761 20.7769C21.0753 20.4757 21.0743 19.9853 20.7751 19.6831L20.7741 19.682ZM11.0483 17.5509C7.47047 17.5447 4.55375 14.6292 4.54861 11.0516C4.54861 7.46783 7.4643 4.55229 11.0483 4.55229C14.6322 4.55229 17.5479 7.46783 17.5479 11.0516C17.5479 14.6354 14.6322 17.5509 11.0483 17.5509Z" fill="#182238"/>
</g>
</svg>
