<svg width="24" height="24" viewBox="0 0 24 24" fill="none" xmlns="http://www.w3.org/2000/svg">
<g id="shopping-bag 1">
<g id="Group 848">
<path id="Vector" d="M16.2159 6.1345H16.2028C15.8503 6.1345 15.551 6.38591 15.4914 6.73261C15.2022 8.11308 14.1256 9.19094 12.7485 9.47929C11.8222 9.67362 10.8753 9.49524 10.0828 8.97729C9.29039 8.45935 8.74685 7.66398 8.55294 6.73722C8.49124 6.38004 8.18904 6.1261 7.83185 6.1345H7.82094C7.78442 6.1345 7.74748 6.13702 7.71223 6.14247C7.31937 6.20207 7.04822 6.57017 7.10782 6.96303C7.57246 9.2795 9.62785 10.9618 11.9947 10.9618H12.0006C12.0178 10.9618 12.0337 10.9618 12.0497 10.9618C14.4165 10.9618 16.4719 9.2774 16.9374 6.95674C16.9424 6.92358 16.9449 6.88497 16.9445 6.84677C16.9424 6.65412 16.8652 6.47406 16.7279 6.33974C16.5886 6.20333 16.4068 6.12988 16.2167 6.1345H16.2159Z" fill="#182238"/>
<path id="Vector_2" d="M21.997 19.2372L21.3061 4.53177C21.2498 3.24111 20.1942 2.23 18.9027 2.23H5.09967C3.8065 2.23 2.75005 3.24069 2.69381 4.53135L2.00294 19.2368C2.00084 19.2784 2 19.3199 2 19.3606C2.00168 20.6853 3.08079 21.7632 4.40544 21.7632H19.5915C19.6322 21.764 19.6717 21.7623 19.7149 21.7602C21.0396 21.6939 22.0633 20.5623 21.997 19.2377V19.2372ZM20.3029 20.07C20.1128 20.2597 19.8606 20.3638 19.5924 20.3638H4.4088C4.39159 20.3638 4.3748 20.3638 4.35759 20.3625C3.80314 20.3348 3.37502 19.8614 3.40272 19.3069L4.09317 4.6367C4.09317 4.37143 4.19768 4.12044 4.38823 3.93114C4.57837 3.74184 4.83104 3.63775 5.09925 3.63775L18.8998 3.60376C19.4551 3.60376 19.9067 4.05538 19.9067 4.61026L20.5976 19.3082C20.5984 19.325 20.5988 19.3418 20.5988 19.359C20.5988 19.628 20.4935 19.8807 20.3034 20.0704L20.3029 20.07Z" fill="#182238"/>
</g>
</g>
</svg>
