<svg width="18" height="19" viewBox="0 0 18 19" fill="none" xmlns="http://www.w3.org/2000/svg">
<g id="tik-tok-original">
<g id="Group">
<g id="Group_2">
<path id="Vector" d="M6.85668 9.94811C5.66233 9.94811 4.69743 10.913 4.71508 12.0956C4.72685 12.8546 5.14458 13.5135 5.7594 13.8812C5.55054 13.5606 5.42699 13.1811 5.4211 12.7722C5.40345 11.5896 6.36835 10.6247 7.5627 10.6247C7.79804 10.6247 8.02455 10.663 8.23636 10.7306V8.36251C8.01573 8.33015 7.78921 8.3125 7.5627 8.3125C7.55093 8.3125 7.54211 8.3125 7.53034 8.3125V10.054C7.31853 9.98636 7.09202 9.94811 6.85668 9.94811Z" fill="#F00044"/>
<path id="Vector_2" d="M12.0202 2.84668H12.0025H11.3906C11.5671 3.73215 12.0643 4.50289 12.7585 5.02652C12.3026 4.42346 12.026 3.67037 12.0202 2.84668Z" fill="#F00044"/>
<path id="Vector_3" d="M15.6204 6.45046C15.388 6.45046 15.1645 6.42693 14.9438 6.38574V8.08313C14.1437 8.08313 13.3671 7.92722 12.6375 7.6154C12.1668 7.41536 11.7285 7.15942 11.3255 6.85054L11.3373 12.0839C11.3314 13.2606 10.8666 14.3638 10.0252 15.1963C9.3398 15.8729 8.47198 16.3053 7.53062 16.4436C7.30999 16.476 7.08348 16.4936 6.85696 16.4936C5.85088 16.4936 4.89187 16.1671 4.1123 15.564C4.20056 15.6699 4.29469 15.7729 4.39765 15.8729C5.24488 16.7084 6.36863 17.1702 7.56592 17.1702C7.79244 17.1702 8.01895 17.1526 8.23958 17.1202C9.18095 16.9819 10.0488 16.5495 10.7342 15.8729C11.5755 15.0404 12.0403 13.9372 12.0462 12.7605L12.0021 7.52714C12.4022 7.83603 12.8405 8.0949 13.3141 8.292C14.0466 8.60088 14.8232 8.75974 15.6204 8.75974" fill="#F00044"/>
</g>
<path id="Vector_4" d="M4.38961 9.61554C5.22801 8.78303 6.34294 8.32117 7.53141 8.31235V7.68575C7.31078 7.65339 7.08426 7.63574 6.85775 7.63574C5.65751 7.63574 4.53082 8.0976 3.68359 8.93894C2.85108 9.76557 2.37451 10.8952 2.37745 12.069C2.37745 13.2515 2.84519 14.3606 3.68948 15.199C3.8248 15.3314 3.96306 15.4549 4.11015 15.5667C3.44531 14.7754 3.08348 13.7869 3.08053 12.7456C3.08348 11.5718 3.5571 10.4422 4.38961 9.61554Z" fill="#08FFF9"/>
<path id="Vector_5" d="M14.9445 6.38546V5.75592H14.9386C14.1208 5.75592 13.3677 5.48528 12.7617 5.02637C13.2883 5.72062 14.059 6.21484 14.9445 6.38546Z" fill="#08FFF9"/>
<path id="Vector_6" d="M7.44294 14.8548C7.7224 14.8695 7.9901 14.8312 8.23721 14.7518C9.09032 14.4723 9.70514 13.6781 9.70514 12.7426L9.70809 9.2419V2.84653H11.3908C11.3466 2.62589 11.3231 2.40232 11.3202 2.16992H9.00207V8.56235L8.99912 12.063C8.99912 12.9985 8.3843 13.7928 7.53119 14.0723C7.28408 14.1546 7.01638 14.1929 6.73692 14.1752C6.38096 14.1546 6.04855 14.0487 5.76025 13.8781C6.12209 14.437 6.73986 14.8165 7.44294 14.8548Z" fill="#08FFF9"/>
<path id="Vector_7" d="M7.53144 16.4435C8.4728 16.3052 9.34062 15.8728 10.026 15.1962C10.8674 14.3636 11.3322 13.2605 11.3381 12.0838L11.3263 6.85041C11.7264 7.15929 12.1647 7.41816 12.6383 7.61526C13.3708 7.92415 14.1474 8.083 14.9447 8.083V6.38561C14.0592 6.21499 13.2885 5.72077 12.7619 5.02652C12.0676 4.50289 11.5675 3.73215 11.394 2.84668H9.70834V9.23911L9.7054 12.7398C9.7054 13.6753 9.09057 14.4695 8.23746 14.749C7.99035 14.8314 7.72265 14.8696 7.44319 14.852C6.73717 14.8137 6.12234 14.4342 5.76051 13.8783C5.14568 13.5135 4.72795 12.8516 4.71618 12.0926C4.69853 10.91 5.66343 9.94513 6.85778 9.94513C7.09312 9.94513 7.31963 9.98337 7.53144 10.051V8.30952C6.34297 8.31834 5.22805 8.7802 4.38965 9.61271C3.55713 10.4393 3.08057 11.569 3.08351 12.7398C3.08351 13.7812 3.44535 14.7696 4.11312 15.5609C4.89563 16.164 5.8517 16.4905 6.85778 16.4905C7.08429 16.4935 7.31081 16.4758 7.53144 16.4435Z" fill="black"/>
</g>
</g>
</svg>
