<svg width="18" height="18" viewBox="0 0 18 18" fill="none" xmlns="http://www.w3.org/2000/svg">
<g id="twitter">
<path id="Vector" d="M16.1973 4.2747C16.0506 4.34195 15.9011 4.39637 15.7497 4.43829L15.3877 4.53838L15.6189 4.2406C15.8368 3.96003 15.999 3.64505 16.1019 3.30442C16.1165 3.24875 16.105 3.1865 16.0702 3.13645C16.0385 3.09079 15.9909 3.06045 15.9365 3.05075C15.8821 3.04105 15.8271 3.05325 15.7817 3.08516L15.7696 3.09266C15.2571 3.37167 14.7108 3.58656 14.1461 3.73169L14.0799 3.74858L14.0302 3.70135C13.4978 3.19557 12.8025 2.88591 12.0728 2.82929C11.3428 2.77268 10.6087 2.9713 10.0055 3.38856C9.04389 4.04292 8.51555 5.17147 8.62682 6.3338L8.64111 6.48331L8.49256 6.47049C6.30462 6.28187 4.26959 5.17835 2.90989 3.44299C2.86794 3.38919 2.80267 3.36041 2.73523 3.36542C2.66499 3.3698 2.60253 3.40764 2.56741 3.46739C2.12951 4.18618 2.00022 5.06481 2.21218 5.87869C2.32251 6.30221 2.50929 6.6957 2.76755 7.0479L3.0684 7.45828L2.61309 7.23432C2.48474 7.17114 2.36322 7.09294 2.25227 7.00192C2.2156 6.97189 2.16929 6.95563 2.12205 6.95563C2.06673 6.95563 2.01452 6.97721 1.97536 7.01662C1.9362 7.05603 1.91476 7.10827 1.91444 7.16394C1.93433 8.34723 2.58668 9.43981 3.61662 10.0144L4.17822 10.3278L3.54079 10.2481C3.38913 10.229 3.23809 10.1964 3.09233 10.1508C3.04509 10.1364 2.9935 10.1398 2.94781 10.1608C2.89746 10.1839 2.85893 10.2252 2.83935 10.2771C2.81977 10.3294 2.82163 10.386 2.84463 10.4367C3.29247 11.446 4.19904 12.193 5.27001 12.4348L5.58515 12.5061L5.30388 12.6659C4.21271 13.2856 2.97765 13.5417 1.73201 13.406C1.72486 13.4054 1.71741 13.4047 1.71026 13.4047C1.61951 13.4047 1.53901 13.4632 1.5098 13.5502C1.47996 13.6431 1.52006 13.7463 1.60552 13.7948C3.07057 14.6709 4.74385 15.1498 6.44571 15.1798C8.08076 15.1736 9.66453 14.6859 11.0248 13.7704C12.2953 12.9218 13.3492 11.7401 14.073 10.3528C14.7941 8.97125 15.117 7.52084 15.0073 6.15926L15.0017 6.08982L15.0573 6.04853C15.6093 5.63753 16.0845 5.13925 16.4698 4.56747C16.5071 4.50804 16.5102 4.42953 16.477 4.36416C16.4248 4.26187 16.2995 4.22152 16.1979 4.27407L16.1973 4.2747Z" fill="#2DB4FF"/>
</g>
</svg>
