<svg width="24" height="24" viewBox="0 0 24 24" fill="none" xmlns="http://www.w3.org/2000/svg">
<g id="Frame">
<g id="Group">
<path id="Vector" d="M19.0711 4.92893C17.1821 3.04 14.6711 2 12 2C9.32893 2 6.81786 3.04 4.92893 4.92893C3.04 6.81786 2 9.32893 2 12C2 14.6711 3.04 17.1821 4.92893 19.0711C6.81786 20.96 9.32893 22 12 22C14.6711 22 17.1821 20.9596 19.0711 19.0711C20.96 17.1825 22 14.6711 22 12C22 9.32893 20.9596 6.81786 19.0711 4.92893ZM12 20.5282C9.72194 20.5282 7.58058 19.6412 5.96971 18.0303C4.35883 16.4194 3.47184 14.2781 3.47184 12C3.47184 11.9293 3.47262 11.8575 3.47456 11.7868C3.51961 9.94408 4.13981 8.2066 5.26835 6.76233C5.35456 6.65204 5.44466 6.54252 5.53592 6.4365C5.67379 6.2765 5.81981 6.11961 5.96971 5.96971C6.11961 5.81981 6.2765 5.67379 6.4365 5.53592C6.54252 5.44466 6.65204 5.35456 6.76233 5.26835C8.20699 4.13981 9.94447 3.51961 11.7868 3.47456C11.8575 3.47301 11.9289 3.47184 12 3.47184C14.2781 3.47184 16.4194 4.35883 18.0303 5.96971C19.6412 7.58058 20.5282 9.72194 20.5282 12C20.5282 14.2781 19.6412 16.4194 18.0303 18.0303C16.4194 19.6412 14.2781 20.5282 12 20.5282Z" fill="#182238"/>
<path id="Vector_2" d="M12.0002 13.8211C14.0068 13.8211 15.639 12.1889 15.639 10.1823C15.639 8.17569 14.0068 6.54346 12.0002 6.54346C9.99356 6.54346 8.36133 8.17569 8.36133 10.1823C8.36133 12.1889 9.99356 13.8211 12.0002 13.8211ZM12.0002 8.09414C13.1516 8.09414 14.0883 9.03084 14.0883 10.1823C14.0883 11.3337 13.1516 12.2704 12.0002 12.2704C10.8487 12.2704 9.91201 11.3337 9.91201 10.1823C9.91201 9.03084 10.8487 8.09414 12.0002 8.09414Z" fill="#182238"/>
<path id="Vector_3" d="M19.7771 18.1986C19.2695 17.9003 18.7452 17.632 18.2221 17.4025L18.219 17.4009C17.9514 17.2825 17.6617 17.1656 17.334 17.044C15.6462 16.4289 13.8769 16.117 12.0753 16.117C9.91261 16.117 7.81008 16.5667 5.82717 17.4533C5.30368 17.6875 4.78096 17.959 4.273 18.2599L4.21436 18.2945L4.25746 18.3469C4.47067 18.6056 4.69436 18.8522 4.9227 19.0805C5.01902 19.1768 5.12853 19.2809 5.25746 19.399L5.28853 19.4273L5.32542 19.4067C5.93086 19.0681 6.55804 18.7757 7.18872 18.5368C8.75222 17.9423 10.3965 17.6405 12.0753 17.6405C13.7542 17.6405 15.2975 17.9209 16.8078 18.4743L16.8175 18.4782H16.8264L16.8687 18.4949C17.5052 18.7295 18.1324 19.0188 18.7332 19.3535L18.7705 19.3745L18.8015 19.3454C18.8944 19.258 18.9864 19.1691 19.0745 19.0809C19.3192 18.8362 19.5542 18.5761 19.7922 18.2856L19.8353 18.2328L19.7767 18.1982L19.7771 18.1986Z" fill="#182238"/>
</g>
</g>
</svg>
