<svg width="33" height="32" viewBox="0 0 33 32" fill="none" xmlns="http://www.w3.org/2000/svg">
<g id="visa" clip-path="url(#clip0_3080_57670)">
<g id="Group">
<rect id="Rectangle 492" x="0.5" y="6" width="32" height="20" rx="2" fill="white"/>
<g id="Group_2">
<g id="Group_3">
<g id="Group_4">
<path id="Vector" d="M14.6749 13L13.6712 19.2463H15.2755L16.2787 13H14.6749ZM19.5143 15.5444C18.9536 15.2675 18.6099 15.0807 18.6099 14.7975C18.6168 14.54 18.9006 14.2762 19.5343 14.2762C20.0556 14.2631 20.4387 14.3856 20.7293 14.5075L20.8749 14.5725L21.093 13.2656C20.7761 13.1431 20.2737 13.0082 19.653 13.0082C18.0687 13.0082 16.9531 13.8319 16.9461 15.01C16.933 15.8794 17.7449 16.3619 18.3524 16.6513C18.973 16.9482 19.1843 17.1407 19.1843 17.4044C19.1775 17.8094 18.6825 17.9963 18.2206 17.9963C17.5806 17.9963 17.2368 17.9001 16.715 17.6744L16.5037 17.5782L16.2794 18.9363C16.6562 19.1038 17.3493 19.2513 18.0688 19.2588C19.7525 19.2588 20.8481 18.4476 20.8619 17.1919C20.8674 16.5032 20.4393 15.9756 19.5143 15.5444ZM25.2062 13.0193H23.9649C23.5824 13.0193 23.2917 13.1294 23.1261 13.5219L20.743 19.2463H22.4267L22.8905 18.0069H24.7742L25.0148 19.2513H26.4999L25.2062 13.0193ZM23.3574 16.7562C23.3899 16.7593 24.0037 14.733 24.0037 14.733L24.4924 16.7562C24.4924 16.7562 23.6743 16.7562 23.3574 16.7562ZM12.3306 13L10.7587 17.2438L10.5874 16.4069C10.2968 15.4412 9.38557 14.3919 8.36865 13.8706L9.80803 19.24H11.5056L14.0281 13.0007H12.3306V13Z" fill="#2394BC"/>
</g>
</g>
<path id="Vector_2" d="M10.0588 13.8063C9.93627 13.33 9.54561 13.0088 9.01505 13.002H6.52564L6.5 13.1175C8.44191 13.5963 10.0719 15.0694 10.6006 16.455L10.0588 13.8063Z" fill="#EFC75E"/>
</g>
</g>
</g>
<defs>
<clipPath id="clip0_3080_57670">
<rect width="32" height="32" fill="white" transform="translate(0.5)"/>
</clipPath>
</defs>
</svg>
