<svg width="18" height="19" viewBox="0 0 18 19" fill="none" xmlns="http://www.w3.org/2000/svg">
<g id="Frame">
<path id="Subtract" fill-rule="evenodd" clip-rule="evenodd" d="M16.3898 6.68653L16.3883 6.67158C16.3755 6.54981 16.2485 5.47257 15.723 4.92295C15.1154 4.276 14.4279 4.19787 14.0974 4.16034L14.0887 4.15935C14.0652 4.15668 14.0433 4.1542 14.0229 4.15149L13.9961 4.14874C12.0548 4.00739 9.14676 3.98594 9.00172 3.98487L9.00015 3.98486H8.9971C8.96811 3.98486 5.96555 4.00592 3.98469 4.14843L3.95753 4.15118C3.94044 4.15362 3.92183 4.15576 3.90138 4.15789L3.88736 4.15949C3.56029 4.19736 2.88022 4.27609 2.27147 4.94554C1.7713 5.48965 1.62695 6.54432 1.612 6.66303L1.61017 6.6789C1.59887 6.80585 1.5 7.9539 1.5 9.12026V10.2393C1.5 11.4038 1.59887 12.5537 1.61017 12.6813L1.61108 12.6889C1.6239 12.8076 1.75024 13.866 2.2736 14.4162C2.84519 15.0415 3.566 15.1242 3.95356 15.1684L3.96089 15.1693C4.01795 15.1757 4.06739 15.1815 4.10188 15.1876L4.13758 15.1925C5.26259 15.2996 8.825 15.3542 9.00439 15.3569L9.01114 15.357H9.0209C9.0499 15.357 12.0518 15.3363 14.0153 15.1934L14.0422 15.1907C14.0669 15.1873 14.0947 15.1843 14.1258 15.1812C14.4511 15.1467 15.1277 15.075 15.7285 14.414C16.2302 13.8687 16.3734 12.8156 16.388 12.6972L16.3898 12.681C16.4011 12.5537 16.5 11.4035 16.5 10.2399V9.12087C16.5 7.97709 16.4045 6.84644 16.3904 6.68714L16.3898 6.68653ZM11.3125 8.98104L8.00908 7.17352C7.81194 7.0658 7.57909 7.06976 7.38592 7.1842C7.19275 7.29864 7.07739 7.50127 7.07739 7.72588V11.3098C7.07739 11.5335 7.19214 11.7355 7.38409 11.8502C7.48266 11.9091 7.59435 11.9403 7.70696 11.9403C7.8101 11.9403 7.91325 11.914 8.00541 11.8643L11.3092 10.0879C11.5127 9.97833 11.6397 9.76685 11.6406 9.53553C11.6415 9.30452 11.5152 9.09212 11.3125 8.98104Z" fill="white"/>
</g>
</svg>
